<svg width="147" height="19" viewBox="0 0 147 19" fill="none" xmlns="http://www.w3.org/2000/svg">
<g clip-path="url(#clip0_2123_5922)">
<path d="M32.4034 7.35788H30.6282V11.9603C30.6282 12.1002 30.6389 12.2234 30.6593 12.3283C30.6798 12.4322 30.7105 12.5209 30.7503 12.5917C30.792 12.6607 30.8409 12.7195 30.8947 12.7661C30.9485 12.8123 31.0095 12.8491 31.0762 12.8741C31.1456 12.9006 31.2198 12.9211 31.2953 12.9336C31.3699 12.9461 31.4518 12.9529 31.5386 12.9529L31.7254 12.9461L31.8933 12.9249C31.9964 12.9052 32.0965 12.8862 32.198 12.8589L32.5755 14.6114L32.3238 14.6887L32.0426 14.7565C31.9388 14.7804 31.8209 14.7998 31.6909 14.8134C31.5621 14.827 31.4218 14.8361 31.271 14.8399C31.0031 14.8479 30.7469 14.8316 30.5043 14.791C30.2618 14.7505 30.0313 14.6853 29.8153 14.5959C29.5978 14.5045 29.4018 14.3874 29.2294 14.2457C29.0569 14.1039 28.9061 13.9372 28.7788 13.7458C28.6529 13.5536 28.5582 13.3372 28.4964 13.0973C28.435 12.8593 28.4055 12.5974 28.4074 12.3121L28.407 7.35826H27.1294V5.61717H28.407V3.46109H30.6286V5.61717H32.4038V7.35826L32.4034 7.35788ZM92.3784 9.39344V14.7171H90.1568V2.6167H92.3314V7.14602H92.3538C92.458 6.90119 92.5914 6.67911 92.751 6.48393C92.917 6.27965 93.1133 6.10228 93.3376 5.95372C93.5647 5.80212 93.8228 5.68804 94.1108 5.61262C94.3984 5.53721 94.7172 5.49931 95.0639 5.49931C95.3785 5.49931 95.676 5.53304 95.9534 5.59936C96.2305 5.66568 96.4878 5.76612 96.7236 5.89876C96.96 6.03179 97.1708 6.19703 97.3534 6.39107C97.5361 6.5855 97.6926 6.81175 97.8215 7.06833C97.9519 7.32415 98.0504 7.60839 98.1156 7.91992C98.1812 8.23145 98.2137 8.57141 98.2137 8.93638V14.7171H95.9921V9.26458C95.9921 8.96632 95.9538 8.70178 95.878 8.47325C95.8026 8.24548 95.6881 8.04878 95.5369 7.88657C95.3876 7.72209 95.2076 7.59854 94.9991 7.51668C94.7892 7.43444 94.5462 7.39313 94.273 7.39313C93.9065 7.39313 93.5783 7.47309 93.2891 7.63265C93.147 7.70996 93.0197 7.80623 92.9079 7.91841C92.7964 8.03097 92.6994 8.1621 92.6176 8.31028C92.5384 8.45809 92.4777 8.62295 92.4379 8.80184C92.3977 8.98148 92.3777 9.17893 92.3777 9.39344H92.3784ZM85.2098 14.893C84.3025 14.893 83.5218 14.6929 82.8691 14.2934C82.5455 14.0941 82.2571 13.8557 82.0069 13.5798C81.7576 13.3046 81.5438 12.9901 81.3683 12.6384C81.1948 12.2859 81.064 11.9046 80.9776 11.4984C80.8912 11.0917 80.8472 10.6589 80.8472 10.2018C80.8472 9.28012 81.0254 8.46605 81.3801 7.75961C81.5578 7.40412 81.7727 7.0869 82.0232 6.81099C82.2741 6.53395 82.5625 6.29633 82.887 6.09849C83.2133 5.89876 83.5695 5.74868 83.955 5.64863C84.3404 5.54895 84.755 5.49893 85.198 5.49893C85.5653 5.49893 85.9132 5.53342 86.2407 5.60163C86.5681 5.66985 86.874 5.77218 87.1582 5.90824C87.4451 6.0424 87.7036 6.20613 87.9325 6.39714C88.1614 6.58853 88.3619 6.80834 88.532 7.05582C88.7022 7.30141 88.8367 7.56898 88.9334 7.85625C89.03 8.14315 89.0914 8.45241 89.1149 8.77985L89.1187 8.83367H86.996L86.9884 8.79236C86.9088 8.36979 86.7178 8.01732 86.4173 7.73573C86.2695 7.59399 86.0966 7.48749 85.8999 7.41662C85.7021 7.34613 85.4774 7.31013 85.2269 7.31013C84.8043 7.31013 84.4325 7.42458 84.1134 7.65236C83.9538 7.76416 83.8109 7.90173 83.6859 8.06432C83.5608 8.22691 83.4524 8.41489 83.363 8.62712C83.2747 8.84011 83.2076 9.07623 83.1636 9.33091C83.1197 9.58597 83.0969 9.86529 83.0969 10.1666C83.0969 10.7733 83.1856 11.2948 83.363 11.7295C83.4501 11.9437 83.557 12.1343 83.6802 12.2999C83.8026 12.4648 83.9436 12.6058 84.1012 12.7217C84.2612 12.8358 84.4355 12.9218 84.6212 12.9783C84.8077 13.0352 85.0097 13.0636 85.2265 13.0636C85.5312 13.0636 85.8041 13.0064 86.0428 12.8927C86.2846 12.7759 86.4885 12.6065 86.6515 12.3867C86.7326 12.2772 86.8023 12.1544 86.8584 12.021C86.9145 11.8868 86.9581 11.7394 86.9884 11.581L86.996 11.54H89.1191L89.1149 11.5942C89.0892 11.9156 89.0285 12.2203 88.9334 12.5069C88.8386 12.7926 88.7079 13.0613 88.5442 13.3107C88.2152 13.8064 87.7669 14.196 87.2003 14.4772C86.9179 14.6156 86.6098 14.7194 86.2774 14.7888C85.9447 14.8577 85.5888 14.8926 85.2098 14.8926V14.893ZM75.6623 5.61641H77.8195V7.11646H77.8267C77.9085 6.86709 78.0196 6.6431 78.1564 6.44792C78.3 6.24365 78.4744 6.06855 78.6775 5.92491C78.8822 5.78014 79.1031 5.67023 79.3377 5.59709C79.5727 5.52432 79.8213 5.48756 80.0836 5.48756C80.2875 5.49286 80.4823 5.50575 80.6854 5.52242L80.8957 5.55616V7.619L80.8287 7.59513C80.7858 7.58035 80.7297 7.56595 80.6615 7.55306L80.4114 7.51516L80.1309 7.48446L79.8607 7.47461C79.6701 7.47461 79.4901 7.49545 79.3218 7.53601C79.1528 7.57656 78.9921 7.63871 78.8412 7.72057C78.5449 7.88013 78.3106 8.10336 78.1397 8.38798C78.0548 8.52972 77.99 8.68397 77.9472 8.84807C77.9047 9.0118 77.8831 9.18879 77.8831 9.37601V14.7171H75.6615V5.61641H75.6623ZM70.5159 14.893C69.6052 14.893 68.8169 14.7027 68.1533 14.3237C67.8224 14.1312 67.5299 13.8993 67.2759 13.629C67.0216 13.3581 66.8048 13.0469 66.6275 12.6975C66.4501 12.3469 66.3163 11.9638 66.228 11.5495C66.1393 11.1364 66.0946 10.6922 66.0946 10.2196C66.0946 9.28694 66.2727 8.46643 66.6275 7.75999C66.8075 7.4045 67.0231 7.08766 67.2737 6.81137C67.5246 6.53471 67.8122 6.2967 68.1343 6.09887C68.4576 5.89914 68.809 5.74868 69.186 5.64901C69.5643 5.54933 69.9713 5.49931 70.4045 5.49931C70.9639 5.49931 71.4933 5.59064 71.9913 5.77256C72.2419 5.86048 72.4791 5.97532 72.7012 6.11403C72.9229 6.25274 73.1302 6.41647 73.3216 6.60369C73.5153 6.79129 73.6892 7.0058 73.8416 7.24532C73.9939 7.48484 74.1262 7.75051 74.2361 8.03968C74.3456 8.32696 74.4294 8.64342 74.4843 8.98754C74.5397 9.33204 74.5673 9.70194 74.5673 10.0965V10.7972H68.2988C68.311 11.2691 68.4042 11.6769 68.5789 12.0191C68.6721 12.2002 68.7847 12.3606 68.9151 12.4997C69.0458 12.6387 69.1951 12.7574 69.3619 12.8536C69.5298 12.9491 69.7128 13.0211 69.9088 13.0681C70.1043 13.1159 70.317 13.1394 70.5444 13.1394C70.6986 13.1394 70.8438 13.1288 70.9775 13.1083C71.114 13.0871 71.2443 13.0549 71.3652 13.0139C71.4873 12.97 71.6021 12.9158 71.7063 12.8529C71.8109 12.7896 71.9091 12.7153 71.9985 12.6319C72.0868 12.5493 72.1657 12.4553 72.2324 12.3526C72.2995 12.2499 72.3563 12.1358 72.4018 12.0123L72.4151 11.9755L74.4908 12.2086L74.4779 12.2639C74.415 12.5285 74.3218 12.7778 74.2009 13.0109C74.08 13.2429 73.9295 13.4593 73.7514 13.6567C73.5748 13.853 73.3735 14.0281 73.1473 14.1805C72.9221 14.3328 72.6713 14.4636 72.3965 14.572C72.1221 14.6781 71.8272 14.7588 71.5131 14.8119C71.1985 14.8649 70.865 14.8918 70.5144 14.8918L70.5159 14.893ZM68.306 9.26724H72.434C72.4291 9.08684 72.4063 8.91477 72.3673 8.7537C72.3249 8.57785 72.2608 8.41185 72.1767 8.2576C72.0095 7.94494 71.7749 7.69935 71.4748 7.52047C71.3266 7.43178 71.1651 7.36394 70.9923 7.31922C70.8195 7.27488 70.633 7.25214 70.4333 7.25214C70.0088 7.25214 69.6367 7.35523 69.3176 7.56026C69.1569 7.66145 69.0136 7.7797 68.8889 7.91272C68.7646 8.04613 68.6566 8.19659 68.5668 8.36259C68.4796 8.52631 68.4125 8.69913 68.3678 8.87953C68.3367 9.00422 68.3155 9.13383 68.3049 9.26686L68.306 9.26724ZM52.2732 5.61641H54.4012V7.14602H54.4221C54.5157 6.89665 54.6389 6.67304 54.7901 6.4771C54.9481 6.27207 55.1387 6.09546 55.3601 5.94765C55.5806 5.79871 55.824 5.68653 56.0881 5.61149C56.3519 5.53683 56.6369 5.49931 56.9408 5.49931C57.5613 5.49931 58.085 5.65128 58.5114 5.95447C58.7259 6.10342 58.9097 6.28154 59.0613 6.48544C59.2053 6.68024 59.3217 6.90082 59.4081 7.14602H59.4327C59.5324 6.90423 59.665 6.68517 59.8295 6.49037C60.0004 6.28723 60.2074 6.10948 60.448 5.95864C60.6902 5.80553 60.9555 5.6907 61.242 5.61414C61.5289 5.53796 61.8382 5.49931 62.1675 5.49931C62.5867 5.49931 62.9695 5.56639 63.3136 5.69979C63.6581 5.83282 63.9643 6.03368 64.23 6.30011C64.7632 6.8326 65.03 7.60877 65.03 8.62598V14.7175H62.8027V8.95457C62.8027 8.68056 62.7663 8.44407 62.6947 8.24623C62.6242 8.05105 62.5162 7.89112 62.3748 7.76757C62.2312 7.64061 62.0709 7.54548 61.8954 7.48219C61.7203 7.4189 61.527 7.38744 61.3174 7.38744C61.0681 7.38744 60.8452 7.42648 60.6519 7.50379C60.459 7.58073 60.2926 7.69708 60.1536 7.85095C60.016 8.0033 59.9118 8.18067 59.8428 8.37964C59.7738 8.58013 59.7389 8.80487 59.7389 9.05349V14.7171H57.5582V8.86589C57.5582 8.41489 57.4225 8.05522 57.1516 7.78841C56.884 7.52122 56.5319 7.38706 56.0972 7.38706C55.9486 7.38706 55.8073 7.40639 55.6743 7.44353C55.5405 7.48105 55.412 7.53828 55.2915 7.6137C55.1706 7.68722 55.0614 7.7778 54.9648 7.88202C54.8689 7.98625 54.784 8.1079 54.7116 8.2451C54.6396 8.37964 54.585 8.52631 54.549 8.68435C54.513 8.84125 54.4948 9.0118 54.4948 9.19409V14.7171H52.2732V5.61641ZM45.0398 9.39344V14.7171H42.8181V5.61641H44.9462V7.14602H44.9685C45.0716 6.90233 45.205 6.68138 45.3661 6.4862C45.534 6.2823 45.7337 6.10418 45.9649 5.95334C46.1972 5.80212 46.4579 5.68804 46.7452 5.61262C47.0317 5.53721 47.3463 5.49931 47.6851 5.49931C47.9982 5.49931 48.2934 5.53342 48.5689 5.60088C48.8433 5.66834 49.098 5.76991 49.3326 5.90483C49.8067 6.17505 50.1728 6.5673 50.4309 7.0797C50.5613 7.33514 50.6591 7.619 50.7235 7.92864C50.7875 8.23752 50.8186 8.57406 50.8167 8.93638L50.8171 14.7171H48.5955V9.26458C48.5955 8.96821 48.5572 8.70481 48.4814 8.4759C48.406 8.24813 48.2915 8.05105 48.1403 7.88657C47.9913 7.72209 47.8128 7.59854 47.6063 7.51668C47.399 7.43444 47.161 7.39313 46.8938 7.39313C46.5315 7.39313 46.2089 7.47309 45.9281 7.63227C45.7898 7.70958 45.6655 7.80585 45.5571 7.91803C45.4483 8.03059 45.3532 8.16172 45.274 8.30953C45.1963 8.45771 45.1372 8.62295 45.0981 8.80184C45.0591 8.9811 45.0394 9.17855 45.0394 9.39344H45.0398ZM37.3557 14.893C36.9131 14.893 36.4981 14.8437 36.113 14.7459C35.7283 14.6485 35.3713 14.5011 35.045 14.3052C34.7187 14.1092 34.428 13.8743 34.1756 13.6006C33.9236 13.3274 33.7064 13.0143 33.5268 12.6622C33.3486 12.3117 33.2149 11.9297 33.1266 11.5192C33.0379 11.1088 32.9931 10.6691 32.9931 10.2022C32.9931 9.73491 33.0379 9.2949 33.1266 8.8837C33.2149 8.47173 33.3486 8.08895 33.5264 7.73611C33.706 7.38289 33.9228 7.06757 34.1756 6.79318C34.428 6.51879 34.7183 6.28306 35.045 6.08712C35.3717 5.89118 35.7283 5.74376 36.113 5.64636C36.4981 5.54858 36.9131 5.49931 37.3557 5.49931C37.7988 5.49931 38.2134 5.54858 38.5988 5.64636C38.9835 5.74376 39.3405 5.89118 39.6668 6.08712C39.9935 6.28306 40.283 6.51917 40.5347 6.79318C40.7863 7.06757 41.0024 7.38289 41.1797 7.73611C41.359 8.08857 41.4943 8.47211 41.5837 8.8837C41.6732 9.29528 41.7187 9.73529 41.7187 10.2022C41.7187 10.6695 41.6732 11.1084 41.5837 11.5192C41.4943 11.9289 41.359 12.3105 41.1794 12.6622C41.002 13.0132 40.7867 13.3266 40.5351 13.6006C40.2834 13.8743 39.9935 14.1092 39.6668 14.3052C39.3401 14.5011 38.9835 14.6485 38.5988 14.7459C38.2134 14.8437 37.7988 14.893 37.3557 14.893ZM37.3675 13.0932C37.8325 13.0932 38.2206 12.9658 38.5313 12.7126C38.6879 12.583 38.8243 12.4311 38.9407 12.2575C39.057 12.0835 39.1536 11.8868 39.2306 11.6681C39.3098 11.448 39.3697 11.2145 39.4091 10.9704C39.4485 10.7275 39.4682 10.469 39.4682 10.1961C39.4682 9.6504 39.389 9.15771 39.2313 8.71922C39.1544 8.49826 39.0574 8.29929 38.941 8.12458C38.8247 7.95024 38.6879 7.79751 38.5317 7.66827C38.3767 7.53942 38.2016 7.44277 38.0083 7.37797C37.8158 7.31392 37.6021 7.2817 37.3682 7.2817C37.1291 7.2817 36.9096 7.3143 36.7129 7.37834C36.5159 7.44277 36.3385 7.53979 36.1816 7.66827C36.0255 7.79751 35.8879 7.95024 35.7708 8.12458C35.6537 8.29929 35.5551 8.49788 35.4763 8.71884C35.399 8.93903 35.3406 9.17249 35.3023 9.41732C35.2644 9.66139 35.2447 9.92138 35.2447 10.1961C35.2447 10.469 35.2644 10.7275 35.3023 10.9704C35.3406 11.2145 35.3986 11.448 35.4763 11.6681C35.5544 11.8853 35.6533 12.0831 35.7708 12.2571C35.8883 12.4311 36.0255 12.5834 36.1812 12.7123C36.3385 12.8389 36.5162 12.9347 36.7126 12.998C36.91 13.0617 37.1291 13.0932 37.3682 13.0932H37.3675Z" fill="white"/>
</g>
<path fill-rule="evenodd" clip-rule="evenodd" d="M6.42329 4.56742C6.62643 4.49562 6.84976 4.50744 7.04418 4.60028C7.2386 4.69312 7.38819 4.85938 7.46004 5.0625C7.62803 5.53812 7.93938 5.94995 8.35118 6.24124C8.76299 6.53253 9.255 6.68895 9.75942 6.68895C10.2638 6.68895 10.7558 6.53253 11.1676 6.24124C11.5795 5.94995 11.8908 5.53812 12.0588 5.0625C12.0931 4.96027 12.1473 4.86589 12.2185 4.78485C12.2896 4.70381 12.3761 4.63774 12.473 4.59048C12.5699 4.54323 12.6753 4.51573 12.7829 4.5096C12.8906 4.50347 12.9984 4.51882 13.1 4.55476C13.2017 4.59071 13.2951 4.64652 13.375 4.71896C13.4549 4.7914 13.5195 4.879 13.5652 4.97668C13.6108 5.07435 13.6366 5.18013 13.641 5.28786C13.6453 5.3956 13.6282 5.50312 13.5906 5.60417C13.3105 6.39645 12.7917 7.08241 12.1056 7.56759C11.4194 8.05277 10.5998 8.31329 9.75942 8.31329C8.91908 8.31329 8.0994 8.05277 7.41327 7.56759C6.72714 7.08241 6.20831 6.39645 5.92821 5.60417C5.85641 5.40103 5.86823 5.1777 5.96107 4.98328C6.05391 4.78886 6.22017 4.63927 6.42329 4.56742ZM10.15 2.625H9.36779C7.60737 2.625 6.43521 2.62825 5.54687 2.73767C4.70404 2.84167 4.31512 3.02258 4.04212 3.249C3.76912 3.4765 3.51996 3.82425 3.26212 4.6335C2.99129 5.48608 2.77246 6.63767 2.44746 8.36883C1.99246 10.7955 1.68696 12.4432 1.63279 13.6848C1.58079 14.8818 1.78121 15.391 2.06287 15.7301C2.34454 16.0692 2.80712 16.3595 3.99337 16.5285C5.22296 16.704 6.89996 16.7083 9.36887 16.7083H10.1489C12.6189 16.7083 14.2948 16.704 15.5244 16.5285C16.7106 16.3595 17.1732 16.0692 17.4549 15.7301C17.7365 15.3899 17.937 14.8818 17.885 13.6848C17.8308 12.4432 17.5253 10.7955 17.0703 8.36883C16.7453 6.63767 16.5275 5.48717 16.2556 4.6335C15.9978 3.82425 15.7486 3.47542 15.4756 3.249C15.2026 3.02258 14.8148 2.84167 13.9709 2.73767C13.0825 2.62825 11.9104 2.625 10.15 2.625ZM3.00429 1.99883C1.80179 2.99767 1.48437 4.68875 0.850624 8.06983C-0.0409593 12.8246 -0.487293 15.2014 0.812708 16.7679C2.11271 18.3344 4.53071 18.3333 9.36887 18.3333H10.1489C14.987 18.3333 17.4061 18.3333 18.7061 16.7679C20.0061 15.2025 19.5598 12.8246 18.6682 8.06875C18.0345 4.68875 17.717 2.99767 16.5135 1.99883C15.311 1 13.5895 1 10.15 1H9.36779C5.92821 1 4.20787 1 3.00429 1.99883Z" fill="#007AFF"/>
<rect x="104" y="1.5" width="43" height="16" rx="6" fill="#007AFF"/>
<path d="M113.759 13.6342C113.159 13.6342 112.622 13.4801 112.148 13.1719C111.674 12.8636 111.299 12.4162 111.024 11.8295C110.749 11.2429 110.612 10.5303 110.612 9.69176C110.612 8.84328 110.751 8.12737 111.029 7.54403C111.311 6.95739 111.69 6.51491 112.168 6.21662C112.645 5.91501 113.177 5.7642 113.763 5.7642C114.211 5.7642 114.579 5.84044 114.867 5.9929C115.156 6.14205 115.384 6.32268 115.553 6.5348C115.722 6.74361 115.853 6.94081 115.946 7.12642H116.021V3.31818H117.825V13.5H116.055V12.2969H115.946C115.853 12.4825 115.719 12.6797 115.543 12.8885C115.368 13.094 115.136 13.2696 114.847 13.4155C114.559 13.5613 114.196 13.6342 113.759 13.6342ZM114.261 12.1577C114.642 12.1577 114.967 12.0549 115.235 11.8494C115.504 11.6406 115.707 11.3506 115.847 10.9794C115.986 10.6082 116.055 10.1757 116.055 9.68182C116.055 9.18797 115.986 8.75876 115.847 8.39418C115.711 8.02959 115.509 7.74621 115.24 7.54403C114.975 7.34186 114.648 7.24077 114.261 7.24077C113.86 7.24077 113.525 7.34517 113.256 7.55398C112.988 7.76278 112.786 8.05114 112.65 8.41903C112.514 8.78693 112.446 9.20786 112.446 9.68182C112.446 10.1591 112.514 10.585 112.65 10.9595C112.789 11.3307 112.993 11.6241 113.261 11.8395C113.533 12.0516 113.866 12.1577 114.261 12.1577ZM122.524 13.6491C121.778 13.6491 121.132 13.4851 120.585 13.157C120.038 12.8288 119.614 12.3698 119.312 11.7798C119.014 11.1899 118.865 10.5005 118.865 9.71165C118.865 8.92282 119.014 8.23177 119.312 7.63849C119.614 7.04522 120.038 6.58452 120.585 6.25639C121.132 5.92827 121.778 5.7642 122.524 5.7642C123.27 5.7642 123.916 5.92827 124.463 6.25639C125.01 6.58452 125.432 7.04522 125.731 7.63849C126.032 8.23177 126.183 8.92282 126.183 9.71165C126.183 10.5005 126.032 11.1899 125.731 11.7798C125.432 12.3698 125.01 12.8288 124.463 13.157C123.916 13.4851 123.27 13.6491 122.524 13.6491ZM122.534 12.2074C122.938 12.2074 123.276 12.0964 123.548 11.8743C123.82 11.6489 124.022 11.3473 124.155 10.9695C124.291 10.5916 124.359 10.1707 124.359 9.70668C124.359 9.23935 124.291 8.81676 124.155 8.43892C124.022 8.05777 123.82 7.7545 123.548 7.52912C123.276 7.30374 122.938 7.19105 122.534 7.19105C122.12 7.19105 121.775 7.30374 121.5 7.52912C121.228 7.7545 121.024 8.05777 120.888 8.43892C120.756 8.81676 120.69 9.23935 120.69 9.70668C120.69 10.1707 120.756 10.5916 120.888 10.9695C121.024 11.3473 121.228 11.6489 121.5 11.8743C121.775 12.0964 122.12 12.2074 122.534 12.2074ZM130.492 13.6491C129.729 13.6491 129.075 13.4818 128.528 13.147C127.984 12.8123 127.565 12.3499 127.27 11.7599C126.978 11.1667 126.833 10.4839 126.833 9.71165C126.833 8.93608 126.982 8.25166 127.28 7.65838C127.578 7.06179 127.999 6.59777 128.543 6.26633C129.09 5.93158 129.736 5.7642 130.482 5.7642C131.101 5.7642 131.65 5.87855 132.127 6.10724C132.608 6.33262 132.991 6.65246 133.276 7.06676C133.561 7.47775 133.723 7.95833 133.763 8.50852H132.043C131.973 8.14062 131.807 7.83404 131.546 7.58878C131.287 7.3402 130.941 7.21591 130.507 7.21591C130.139 7.21591 129.815 7.31534 129.537 7.5142C129.259 7.70975 129.042 7.99148 128.886 8.35938C128.733 8.72727 128.657 9.16809 128.657 9.68182C128.657 10.2022 128.733 10.6496 128.886 11.0241C129.038 11.3954 129.252 11.6821 129.527 11.8842C129.806 12.0831 130.132 12.1825 130.507 12.1825C130.772 12.1825 131.009 12.1328 131.217 12.0334C131.43 11.9306 131.607 11.7831 131.749 11.5909C131.892 11.3987 131.99 11.165 132.043 10.8899H133.763C133.72 11.4302 133.561 11.9091 133.286 12.3267C133.011 12.741 132.636 13.0658 132.162 13.3011C131.688 13.5331 131.131 13.6491 130.492 13.6491ZM140.726 7.8821L139.086 8.06108C139.039 7.89536 138.958 7.73958 138.842 7.59375C138.729 7.44792 138.577 7.33026 138.385 7.24077C138.192 7.15128 137.957 7.10653 137.679 7.10653C137.304 7.10653 136.989 7.18774 136.734 7.35014C136.482 7.51255 136.358 7.72301 136.361 7.98153C136.358 8.2036 136.439 8.38423 136.605 8.52344C136.774 8.66264 137.052 8.77699 137.44 8.86648L138.743 9.14489C139.465 9.30066 140.002 9.54759 140.353 9.88565C140.708 10.2237 140.887 10.6662 140.89 11.2131C140.887 11.6937 140.746 12.1179 140.468 12.4858C140.193 12.8504 139.81 13.1354 139.319 13.3409C138.829 13.5464 138.265 13.6491 137.629 13.6491C136.694 13.6491 135.942 13.4536 135.372 13.0625C134.802 12.6681 134.462 12.1196 134.353 11.4169L136.108 11.2479C136.187 11.5926 136.356 11.8527 136.615 12.0284C136.873 12.2041 137.21 12.2919 137.624 12.2919C138.052 12.2919 138.395 12.2041 138.653 12.0284C138.915 11.8527 139.046 11.6357 139.046 11.3771C139.046 11.1584 138.961 10.9777 138.792 10.8352C138.627 10.6927 138.368 10.5833 138.017 10.5071L136.714 10.2337C135.982 10.0812 135.44 9.82434 135.088 9.46307C134.737 9.09848 134.563 8.63778 134.566 8.08097C134.563 7.61032 134.691 7.20265 134.949 6.85795C135.211 6.50994 135.574 6.24148 136.038 6.05256C136.505 5.86032 137.044 5.7642 137.654 5.7642C138.549 5.7642 139.253 5.95478 139.767 6.33594C140.284 6.71709 140.604 7.23248 140.726 7.8821Z" fill="white"/>
<defs>
<clipPath id="clip0_2123_5922">
<rect width="71.085" height="12.2763" fill="white" transform="translate(27.1289 2.6167)"/>
</clipPath>
</defs>
</svg>
