<svg width="99" height="18" viewBox="0 0 99 18" fill="none" xmlns="http://www.w3.org/2000/svg">
<g clip-path="url(#clip0_1935_5916)">
<path d="M32.6446 6.69113H30.8695V11.2936C30.8695 11.4334 30.8801 11.5566 30.9005 11.6616C30.921 11.7654 30.9517 11.8541 30.9915 11.925C31.0332 11.994 31.0821 12.0527 31.1359 12.0993C31.1897 12.1456 31.2507 12.1823 31.3174 12.2073C31.3868 12.2339 31.4611 12.2543 31.5365 12.2669C31.6111 12.2794 31.693 12.2862 31.7798 12.2862L31.9666 12.2794L32.1345 12.2581C32.2376 12.2384 32.3377 12.2195 32.4392 12.1922L32.8167 13.9446L32.5651 14.022L32.2838 14.0898C32.18 14.1137 32.0621 14.133 31.9321 14.1466C31.8033 14.1603 31.6631 14.1694 31.5122 14.1732C31.2443 14.1811 30.9881 14.1648 30.7455 14.1243C30.503 14.0837 30.2725 14.0185 30.0565 13.9291C29.839 13.8378 29.643 13.7207 29.4706 13.5789C29.2982 13.4372 29.1473 13.2704 29.02 13.079C28.8942 12.8869 28.7994 12.6705 28.7376 12.4306C28.6762 12.1926 28.6467 11.9307 28.6486 11.6453L28.6482 6.69151H27.3706V4.95042H28.6482V2.79434H30.8698V4.95042H32.645V6.69151L32.6446 6.69113ZM92.6196 8.72669V14.0504H90.398V1.94995H92.5726V6.47928H92.595C92.6992 6.23445 92.8326 6.01236 92.9922 5.81718C93.1582 5.6129 93.3545 5.43553 93.5788 5.28697C93.8059 5.13537 94.064 5.0213 94.352 4.94588C94.6396 4.87046 94.9584 4.83256 95.3052 4.83256C95.6197 4.83256 95.9172 4.86629 96.1946 4.93261C96.4717 4.99894 96.729 5.09937 96.9648 5.23202C97.2013 5.36504 97.412 5.53028 97.5947 5.72432C97.7773 5.91875 97.9338 6.145 98.0627 6.40158C98.1931 6.6574 98.2916 6.94164 98.3568 7.25317C98.4224 7.56471 98.455 7.90466 98.455 8.26963V14.0504H96.2333V8.59784C96.2333 8.29957 96.195 8.03503 96.1192 7.8065C96.0438 7.57873 95.9294 7.38203 95.7781 7.21982C95.6288 7.05534 95.4488 6.93179 95.2404 6.84993C95.0304 6.76769 94.7875 6.72638 94.5142 6.72638C94.1477 6.72638 93.8195 6.80634 93.5303 6.9659C93.3882 7.04321 93.2609 7.13948 93.1491 7.25166C93.0377 7.36422 92.9406 7.49535 92.8588 7.64354C92.7796 7.79134 92.7189 7.9562 92.6791 8.13509C92.639 8.31473 92.6189 8.51218 92.6189 8.72669H92.6196ZM85.451 14.2262C84.5437 14.2262 83.763 14.0261 83.1104 13.6267C82.7867 13.4273 82.4983 13.1889 82.2482 12.913C81.9988 12.6379 81.785 12.3233 81.6096 11.9716C81.436 11.6192 81.3052 11.2379 81.2188 10.8316C81.1324 10.425 81.0884 9.99214 81.0884 9.53508C81.0884 8.61337 81.2666 7.7993 81.6213 7.09286C81.799 6.73737 82.0139 6.42015 82.2645 6.14425C82.5153 5.8672 82.8038 5.62958 83.1282 5.43174C83.4545 5.23202 83.8107 5.08193 84.1962 4.98188C84.5816 4.88221 84.9962 4.83218 85.4393 4.83218C85.8065 4.83218 86.1544 4.86667 86.4819 4.93489C86.8093 5.0031 87.1152 5.10543 87.3994 5.24149C87.6863 5.37565 87.9448 5.53938 88.1737 5.73039C88.4026 5.92178 88.6031 6.14159 88.7732 6.38908C88.9434 6.63466 89.078 6.90223 89.1746 7.1895C89.2712 7.4764 89.3326 7.78566 89.3561 8.11311L89.3599 8.16692H87.2372L87.2296 8.12561C87.15 7.70304 86.959 7.35058 86.6585 7.06899C86.5107 6.92724 86.3378 6.82075 86.1412 6.74988C85.9433 6.67938 85.7186 6.64338 85.4681 6.64338C85.0455 6.64338 84.6737 6.75783 84.3546 6.98561C84.195 7.09741 84.0522 7.23498 83.9271 7.39757C83.802 7.56016 83.6936 7.74814 83.6042 7.96037C83.5159 8.17337 83.4488 8.40948 83.4048 8.66416C83.3609 8.91922 83.3381 9.19854 83.3381 9.49984C83.3381 10.1066 83.4268 10.6281 83.6042 11.0628C83.6914 11.2769 83.7982 11.4676 83.9214 11.6332C84.0438 11.798 84.1848 11.939 84.3425 12.055C84.5024 12.1691 84.6767 12.2551 84.8624 12.3116C85.0489 12.3684 85.2509 12.3968 85.4677 12.3968C85.7724 12.3968 86.0453 12.3396 86.284 12.2259C86.5258 12.1092 86.7297 11.9398 86.8927 11.72C86.9738 11.6104 87.0435 11.4876 87.0996 11.3542C87.1557 11.2201 87.1993 11.0726 87.2296 10.9142L87.2372 10.8733H89.3603L89.3561 10.9275C89.3304 11.2489 89.2697 11.5536 89.1746 11.8401C89.0798 12.1259 88.9491 12.3946 88.7854 12.6439C88.4564 13.1397 88.0081 13.5293 87.4415 13.8105C87.1591 13.9488 86.851 14.0527 86.5186 14.122C86.1859 14.191 85.83 14.2259 85.451 14.2259V14.2262ZM75.9035 4.94967H78.0607V6.44971H78.0679C78.1497 6.20034 78.2608 5.97635 78.3976 5.78117C78.5412 5.5769 78.7156 5.4018 78.9187 5.25817C79.1234 5.11339 79.3443 5.00348 79.5789 4.93034C79.8139 4.85757 80.0625 4.82081 80.3248 4.82081C80.5287 4.82612 80.7235 4.839 80.9266 4.85568L81.137 4.88941V6.95226L81.0699 6.92838C81.027 6.9136 80.971 6.8992 80.9027 6.88631L80.6526 6.84841L80.3721 6.81771L80.1019 6.80786C79.9113 6.80786 79.7313 6.82871 79.563 6.86926C79.394 6.90981 79.2333 6.97196 79.0824 7.05383C78.7861 7.21338 78.5519 7.43661 78.3809 7.72123C78.296 7.86297 78.2312 8.01722 78.1884 8.18132C78.146 8.34505 78.1243 8.52204 78.1243 8.70926V14.0504H75.9027V4.94967H75.9035ZM70.7571 14.2262C69.8464 14.2262 69.0581 14.036 68.3945 13.657C68.0636 13.4645 67.7711 13.2325 67.5171 12.9623C67.2628 12.6913 67.0461 12.3802 66.8687 12.0307C66.6913 11.6802 66.5575 11.297 66.4692 10.8828C66.3806 10.4697 66.3358 10.0255 66.3358 9.55289C66.3358 8.6202 66.514 7.79968 66.8687 7.09324C67.0487 6.73775 67.2644 6.42091 67.5149 6.14463C67.7658 5.86796 68.0534 5.62996 68.3756 5.43212C68.6988 5.23239 69.0502 5.08193 69.4273 4.98226C69.8055 4.88259 70.2125 4.83256 70.6457 4.83256C71.2051 4.83256 71.7346 4.9239 72.2326 5.10581C72.4831 5.19374 72.7203 5.30857 72.9424 5.44728C73.1641 5.58599 73.3714 5.74972 73.5628 5.93694C73.7565 6.12454 73.9304 6.33905 74.0828 6.57857C74.2351 6.81809 74.3674 7.08377 74.4773 7.37294C74.5868 7.66021 74.6706 7.97667 74.7256 8.32079C74.7809 8.6653 74.8086 9.03519 74.8086 9.42972V10.1305H68.54C68.5522 10.6023 68.6454 11.0101 68.8201 11.3523C68.9133 11.5335 69.0259 11.6938 69.1563 11.8329C69.287 11.972 69.4364 12.0906 69.6031 12.1869C69.771 12.2824 69.9541 12.3544 70.15 12.4014C70.3456 12.4491 70.5582 12.4726 70.7856 12.4726C70.9398 12.4726 71.085 12.462 71.2188 12.4416C71.3552 12.4203 71.4856 12.3881 71.6065 12.3472C71.7285 12.3032 71.8433 12.249 71.9476 12.1861C72.0522 12.1228 72.1503 12.0486 72.2398 11.9652C72.3281 11.8826 72.4069 11.7886 72.4736 11.6859C72.5407 11.5832 72.5975 11.4691 72.643 11.3455L72.6563 11.3088L74.732 11.5418L74.7191 11.5972C74.6562 11.8617 74.563 12.1111 74.4421 12.3442C74.3212 12.5761 74.1707 12.7925 73.9926 12.99C73.816 13.1863 73.6147 13.3614 73.3885 13.5137C73.1634 13.6661 72.9125 13.7968 72.6377 13.9052C72.3633 14.0113 72.0685 14.0921 71.7543 14.1451C71.4397 14.1982 71.1062 14.2251 70.7556 14.2251L70.7571 14.2262ZM68.5472 8.60049H72.6752C72.6703 8.42009 72.6475 8.24803 72.6085 8.08696C72.5661 7.9111 72.502 7.74511 72.4179 7.59086C72.2507 7.27819 72.0161 7.0326 71.716 6.85372C71.5678 6.76503 71.4064 6.6972 71.2335 6.65247C71.0607 6.60813 70.8742 6.58539 70.6745 6.58539C70.25 6.58539 69.8779 6.68848 69.5588 6.89351C69.3981 6.9947 69.2548 7.11295 69.1301 7.24597C69.0058 7.37938 68.8978 7.52984 68.808 7.69584C68.7208 7.85956 68.6537 8.03238 68.609 8.21278C68.5779 8.33747 68.5567 8.46708 68.5461 8.60011L68.5472 8.60049ZM52.5144 4.94967H54.6424V6.47928H54.6633C54.7569 6.2299 54.8801 6.00629 55.0313 5.81036C55.1893 5.60532 55.38 5.42871 55.6013 5.28091C55.8219 5.13196 56.0652 5.01978 56.3293 4.94474C56.5931 4.87008 56.8781 4.83256 57.1821 4.83256C57.8025 4.83256 58.3262 4.98453 58.7526 5.28773C58.9671 5.43667 59.1509 5.6148 59.3025 5.81869C59.4465 6.01349 59.5629 6.23407 59.6493 6.47928H59.6739C59.7736 6.23748 59.9062 6.01842 60.0707 5.82362C60.2416 5.62048 60.4486 5.44273 60.6892 5.2919C60.9314 5.13878 61.1967 5.02395 61.4832 4.94739C61.7701 4.87122 62.0794 4.83256 62.4087 4.83256C62.8279 4.83256 63.2107 4.89964 63.5548 5.03304C63.8993 5.16607 64.2055 5.36694 64.4712 5.63337C65.0044 6.16585 65.2712 6.94202 65.2712 7.95924V14.0508H63.0439V8.28782C63.0439 8.01381 63.0075 7.77732 62.9359 7.57949C62.8654 7.38431 62.7574 7.22437 62.616 7.10082C62.4724 6.97386 62.3121 6.87873 62.1366 6.81544C61.9615 6.75215 61.7682 6.72069 61.5586 6.72069C61.3093 6.72069 61.0864 6.75973 60.8931 6.83704C60.7002 6.91398 60.5339 7.03033 60.3948 7.1842C60.2572 7.33655 60.153 7.51392 60.084 7.71289C60.015 7.91338 59.9801 8.13812 59.9801 8.38674V14.0504H57.7994V8.19914C57.7994 7.74814 57.6638 7.38848 57.3928 7.12167C57.1252 6.85448 56.7731 6.72031 56.3384 6.72031C56.1899 6.72031 56.0485 6.73964 55.9155 6.77678C55.7817 6.8143 55.6532 6.87153 55.5327 6.94695C55.4118 7.02047 55.3026 7.11105 55.206 7.21528C55.1101 7.3195 55.0252 7.44115 54.9528 7.57835C54.8808 7.71289 54.8262 7.85956 54.7902 8.0176C54.7542 8.1745 54.736 8.34505 54.736 8.52734V14.0504H52.5144V4.94967ZM45.281 8.72669V14.0504H43.0593V4.94967H45.1874V6.47928H45.2097C45.3128 6.23558 45.4462 6.01463 45.6073 5.81945C45.7752 5.61555 45.9749 5.43743 46.2061 5.28659C46.4384 5.13537 46.6992 5.0213 46.9864 4.94588C47.273 4.87046 47.5875 4.83256 47.9263 4.83256C48.2394 4.83256 48.5346 4.86667 48.8101 4.93413C49.0845 5.00159 49.3392 5.10316 49.5738 5.23808C50.0479 5.5083 50.414 5.90056 50.6721 6.41295C50.8025 6.66839 50.9003 6.95226 50.9647 7.26189C51.0288 7.57077 51.0598 7.90731 51.0579 8.26963L51.0583 14.0504H48.8367V8.59784C48.8367 8.30147 48.7984 8.03807 48.7226 7.80916C48.6472 7.58138 48.5327 7.38431 48.3815 7.21982C48.2326 7.05534 48.0541 6.93179 47.8475 6.84993C47.6402 6.76769 47.4022 6.72638 47.135 6.72638C46.7727 6.72638 46.4502 6.80634 46.1693 6.96552C46.031 7.04284 45.9067 7.1391 45.7983 7.25128C45.6895 7.36384 45.5944 7.49497 45.5152 7.64278C45.4375 7.79096 45.3784 7.9562 45.3393 8.13509C45.3003 8.31435 45.2806 8.51181 45.2806 8.72669H45.281ZM37.5969 14.2262C37.1543 14.2262 36.7393 14.177 36.3542 14.0792C35.9695 13.9818 35.6125 13.8344 35.2862 13.6384C34.9599 13.4425 34.6692 13.2075 34.4168 12.9339C34.1648 12.6606 33.9476 12.3476 33.768 11.9955C33.5899 11.6449 33.4561 11.2629 33.3678 10.8525C33.2791 10.442 33.2344 10.0024 33.2344 9.53546C33.2344 9.06816 33.2791 8.62816 33.3678 8.21695C33.4561 7.80499 33.5899 7.42221 33.7676 7.06936C33.9472 6.71614 34.164 6.40082 34.4168 6.12643C34.6692 5.85204 34.9595 5.61631 35.2862 5.42037C35.6129 5.22444 35.9695 5.07701 36.3542 4.97961C36.7393 4.88183 37.1543 4.83256 37.5969 4.83256C38.04 4.83256 38.4546 4.88183 38.84 4.97961C39.2247 5.07701 39.5817 5.22444 39.908 5.42037C40.2347 5.61631 40.5243 5.85242 40.7759 6.12643C41.0276 6.40082 41.2436 6.71614 41.4209 7.06936C41.6002 7.42183 41.7355 7.80537 41.825 8.21695C41.9144 8.62853 41.9599 9.06854 41.9599 9.53546C41.9599 10.0028 41.9144 10.4416 41.825 10.8525C41.7355 11.2621 41.6002 11.6438 41.4206 11.9955C41.2432 12.3464 41.0279 12.6599 40.7763 12.9339C40.5246 13.2075 40.2347 13.4425 39.908 13.6384C39.5813 13.8344 39.2247 13.9818 38.84 14.0792C38.4546 14.177 38.04 14.2262 37.5969 14.2262ZM37.6087 12.4264C38.0737 12.4264 38.4618 12.2991 38.7726 12.0459C38.9291 11.9163 39.0655 11.7643 39.1819 11.5907C39.2982 11.4168 39.3949 11.2201 39.4718 11.0014C39.551 10.7812 39.6109 10.5477 39.6503 10.3037C39.6897 10.0607 39.7094 9.80227 39.7094 9.5294C39.7094 8.98365 39.6302 8.49096 39.4726 8.05247C39.3956 7.83152 39.2986 7.63255 39.1822 7.45783C39.0659 7.28349 38.9291 7.13076 38.7729 7.00152C38.6179 6.87267 38.4428 6.77603 38.2495 6.71122C38.057 6.64717 37.8433 6.61495 37.6094 6.61495C37.3703 6.61495 37.1509 6.64755 36.9542 6.7116C36.7571 6.77603 36.5797 6.87305 36.4228 7.00152C36.2667 7.13076 36.1291 7.28349 36.012 7.45783C35.8949 7.63255 35.7963 7.83114 35.7175 8.05209C35.6402 8.27228 35.5818 8.50574 35.5436 8.75057C35.5057 8.99464 35.4859 9.25463 35.4859 9.5294C35.4859 9.80227 35.5057 10.0607 35.5436 10.3037C35.5818 10.5477 35.6398 10.7812 35.7175 11.0014C35.7956 11.2186 35.8945 11.4164 36.012 11.5904C36.1295 11.7643 36.2667 11.9167 36.4224 12.0455C36.5797 12.1721 36.7575 12.268 36.9538 12.3313C37.1512 12.3949 37.3703 12.4264 37.6094 12.4264H37.6087Z" fill="black"/>
</g>
<path fill-rule="evenodd" clip-rule="evenodd" d="M6.6645 3.90067C6.86764 3.82887 7.09097 3.84069 7.28539 3.93353C7.47981 4.02638 7.6294 4.19264 7.70125 4.39575C7.86924 4.87137 8.18059 5.2832 8.5924 5.57449C9.0042 5.86578 9.49621 6.0222 10.0006 6.0222C10.505 6.0222 10.997 5.86578 11.4089 5.57449C11.8207 5.2832 12.132 4.87137 12.3 4.39575C12.3343 4.29353 12.3886 4.19914 12.4597 4.1181C12.5308 4.03707 12.6173 3.97099 12.7142 3.92374C12.8111 3.87648 12.9165 3.84898 13.0241 3.84285C13.1318 3.83672 13.2396 3.85207 13.3412 3.88802C13.4429 3.92396 13.5364 3.97978 13.6162 4.05221C13.6961 4.12465 13.7607 4.21226 13.8064 4.30993C13.8521 4.4076 13.8778 4.51339 13.8822 4.62112C13.8866 4.72885 13.8694 4.83637 13.8318 4.93742C13.5517 5.7297 13.0329 6.41567 12.3468 6.90084C11.6606 7.38602 10.841 7.64655 10.0006 7.64655C9.16029 7.64655 8.34062 7.38602 7.65448 6.90084C6.96836 6.41567 6.44952 5.7297 6.16942 4.93742C6.09762 4.73428 6.10944 4.51095 6.20228 4.31653C6.29513 4.12211 6.46139 3.97252 6.6645 3.90067ZM10.3912 1.95825H9.609C7.84858 1.95825 6.67642 1.9615 5.78809 2.07092C4.94525 2.17492 4.55633 2.35584 4.28334 2.58225C4.01033 2.80975 3.76117 3.1575 3.50333 3.96675C3.2325 4.81934 3.01367 5.97092 2.68867 7.70209C2.23367 10.1288 1.92817 11.7765 1.874 13.018C1.822 14.2151 2.02242 14.7243 2.30409 15.0633C2.58575 15.4024 3.04833 15.6928 4.23459 15.8618C5.46417 16.0373 7.14117 16.0416 9.61009 16.0416H10.3901C12.8601 16.0416 14.536 16.0373 15.7656 15.8618C16.9518 15.6928 17.4144 15.4024 17.6961 15.0633C17.9778 14.7232 18.1782 14.2151 18.1262 13.018C18.072 11.7765 17.7665 10.1288 17.3115 7.70209C16.9865 5.97092 16.7688 4.82042 16.4968 3.96675C16.239 3.1575 15.9898 2.80867 15.7168 2.58225C15.4438 2.35584 15.056 2.17492 14.2121 2.07092C13.3238 1.9615 12.1516 1.95825 10.3912 1.95825ZM3.2455 1.33209C2.043 2.33092 1.72558 4.022 1.09184 7.40309C0.200252 12.1578 -0.246082 14.5347 1.05392 16.1012C2.35392 17.6677 4.77192 17.6666 9.61009 17.6666H10.3901C15.2283 17.6666 17.6473 17.6666 18.9473 16.1012C20.2473 14.5358 19.801 12.1578 18.9094 7.402C18.2757 4.022 17.9583 2.33092 16.7547 1.33209C15.5522 0.333252 13.8308 0.333252 10.3912 0.333252H9.609C6.16942 0.333252 4.44908 0.333252 3.2455 1.33209Z" fill="#007AFF"/>
<defs>
<clipPath id="clip0_1935_5916">
<rect width="71.085" height="12.2763" fill="white" transform="translate(27.3701 1.94995)"/>
</clipPath>
</defs>
</svg>
