<svg width="99" height="18" viewBox="0 0 99 18" fill="none" xmlns="http://www.w3.org/2000/svg">
<g clip-path="url(#clip0_1935_6033)">
<path d="M32.4034 6.35788H30.6282V10.9603C30.6282 11.1002 30.6389 11.2234 30.6593 11.3283C30.6798 11.4322 30.7105 11.5209 30.7503 11.5917C30.792 11.6607 30.8409 11.7195 30.8947 11.7661C30.9485 11.8123 31.0095 11.8491 31.0762 11.8741C31.1456 11.9006 31.2198 11.9211 31.2953 11.9336C31.3699 11.9461 31.4518 11.9529 31.5386 11.9529L31.7254 11.9461L31.8933 11.9249C31.9964 11.9052 32.0965 11.8862 32.198 11.8589L32.5755 13.6114L32.3238 13.6887L32.0426 13.7565C31.9388 13.7804 31.8209 13.7998 31.6909 13.8134C31.5621 13.827 31.4218 13.8361 31.271 13.8399C31.0031 13.8479 30.7469 13.8316 30.5043 13.791C30.2618 13.7505 30.0313 13.6853 29.8153 13.5959C29.5978 13.5045 29.4018 13.3874 29.2294 13.2457C29.0569 13.1039 28.9061 12.9372 28.7788 12.7458C28.6529 12.5536 28.5582 12.3372 28.4964 12.0973C28.435 11.8593 28.4055 11.5974 28.4074 11.3121L28.407 6.35826H27.1294V4.61717H28.407V2.46109H30.6286V4.61717H32.4038V6.35826L32.4034 6.35788ZM92.3784 8.39344V13.7171H90.1568V1.6167H92.3314V6.14602H92.3538C92.458 5.9012 92.5914 5.67911 92.751 5.48393C92.917 5.27965 93.1133 5.10228 93.3376 4.95372C93.5647 4.80212 93.8228 4.68804 94.1108 4.61262C94.3984 4.53721 94.7172 4.49931 95.0639 4.49931C95.3785 4.49931 95.676 4.53304 95.9534 4.59936C96.2305 4.66568 96.4878 4.76612 96.7236 4.89876C96.96 5.03179 97.1708 5.19703 97.3534 5.39107C97.5361 5.58549 97.6926 5.81175 97.8215 6.06833C97.9519 6.32415 98.0504 6.60839 98.1156 6.91992C98.1812 7.23145 98.2137 7.57141 98.2137 7.93638V13.7171H95.9921V8.26458C95.9921 7.96632 95.9538 7.70178 95.878 7.47325C95.8026 7.24548 95.6881 7.04878 95.5369 6.88657C95.3876 6.72209 95.2076 6.59854 94.9991 6.51668C94.7892 6.43444 94.5462 6.39313 94.273 6.39313C93.9065 6.39313 93.5783 6.47309 93.2891 6.63265C93.147 6.70996 93.0197 6.80623 92.9079 6.91841C92.7964 7.03097 92.6994 7.1621 92.6176 7.31028C92.5384 7.45809 92.4777 7.62295 92.4379 7.80184C92.3977 7.98148 92.3777 8.17893 92.3777 8.39344H92.3784ZM85.2098 13.893C84.3025 13.893 83.5218 13.6929 82.8691 13.2934C82.5455 13.0941 82.2571 12.8557 82.0069 12.5798C81.7576 12.3046 81.5438 11.9901 81.3683 11.6384C81.1948 11.2859 81.064 10.9046 80.9776 10.4984C80.8912 10.0917 80.8472 9.65889 80.8472 9.20183C80.8472 8.28012 81.0254 7.46605 81.3801 6.75961C81.5578 6.40412 81.7727 6.0869 82.0232 5.811C82.2741 5.53395 82.5625 5.29632 82.887 5.09849C83.2133 4.89876 83.5695 4.74868 83.955 4.64863C84.3404 4.54895 84.755 4.49893 85.198 4.49893C85.5653 4.49893 85.9132 4.53342 86.2407 4.60163C86.5681 4.66985 86.874 4.77218 87.1582 4.90824C87.4451 5.0424 87.7036 5.20613 87.9325 5.39714C88.1614 5.58853 88.3619 5.80834 88.532 6.05582C88.7022 6.30141 88.8367 6.56898 88.9334 6.85625C89.03 7.14315 89.0914 7.45241 89.1149 7.77985L89.1187 7.83367H86.996L86.9884 7.79236C86.9088 7.36979 86.7178 7.01732 86.4173 6.73573C86.2695 6.59399 86.0966 6.48749 85.8999 6.41662C85.7021 6.34613 85.4774 6.31013 85.2269 6.31013C84.8043 6.31013 84.4325 6.42458 84.1134 6.65236C83.9538 6.76416 83.8109 6.90173 83.6859 7.06432C83.5608 7.22691 83.4524 7.41489 83.363 7.62712C83.2747 7.84011 83.2076 8.07623 83.1636 8.33091C83.1197 8.58597 83.0969 8.86529 83.0969 9.16658C83.0969 9.77335 83.1856 10.2948 83.363 10.7295C83.4501 10.9437 83.557 11.1343 83.6802 11.2999C83.8026 11.4648 83.9436 11.6058 84.1012 11.7217C84.2612 11.8358 84.4355 11.9218 84.6212 11.9783C84.8077 12.0352 85.0097 12.0636 85.2265 12.0636C85.5312 12.0636 85.8041 12.0064 86.0428 11.8927C86.2846 11.7759 86.4885 11.6065 86.6515 11.3867C86.7326 11.2772 86.8023 11.1544 86.8584 11.021C86.9145 10.8868 86.9581 10.7394 86.9884 10.581L86.996 10.54H89.1191L89.1149 10.5942C89.0892 10.9156 89.0285 11.2203 88.9334 11.5069C88.8386 11.7926 88.7079 12.0613 88.5442 12.3107C88.2152 12.8064 87.7669 13.196 87.2003 13.4772C86.9179 13.6156 86.6098 13.7194 86.2774 13.7888C85.9447 13.8577 85.5888 13.8926 85.2098 13.8926V13.893ZM75.6623 4.61641H77.8195V6.11646H77.8267C77.9085 5.86709 78.0196 5.6431 78.1564 5.44792C78.3 5.24364 78.4744 5.06855 78.6775 4.92491C78.8822 4.78014 79.1031 4.67023 79.3377 4.59709C79.5727 4.52432 79.8213 4.48756 80.0836 4.48756C80.2875 4.49286 80.4823 4.50575 80.6854 4.52242L80.8957 4.55615V6.619L80.8287 6.59513C80.7858 6.58035 80.7297 6.56595 80.6615 6.55306L80.4114 6.51516L80.1309 6.48446L79.8607 6.47461C79.6701 6.47461 79.4901 6.49545 79.3218 6.53601C79.1528 6.57656 78.9921 6.63871 78.8412 6.72057C78.5449 6.88013 78.3106 7.10335 78.1397 7.38798C78.0548 7.52972 77.99 7.68397 77.9472 7.84807C77.9047 8.0118 77.8831 8.18879 77.8831 8.37601V13.7171H75.6615V4.61641H75.6623ZM70.5159 13.893C69.6052 13.893 68.8169 13.7027 68.1533 13.3237C67.8224 13.1312 67.5299 12.8993 67.2759 12.629C67.0216 12.3581 66.8048 12.0469 66.6275 11.6975C66.4501 11.3469 66.3163 10.9638 66.228 10.5495C66.1393 10.1364 66.0946 9.69224 66.0946 9.21964C66.0946 8.28694 66.2727 7.46643 66.6275 6.75999C66.8075 6.4045 67.0231 6.08766 67.2737 5.81137C67.5246 5.53471 67.8122 5.2967 68.1343 5.09887C68.4576 4.89914 68.809 4.74868 69.186 4.64901C69.5643 4.54933 69.9713 4.49931 70.4045 4.49931C70.9639 4.49931 71.4933 4.59064 71.9913 4.77256C72.2419 4.86048 72.4791 4.97532 72.7012 5.11403C72.9229 5.25274 73.1302 5.41647 73.3216 5.60369C73.5153 5.79129 73.6892 6.0058 73.8416 6.24532C73.9939 6.48484 74.1262 6.75051 74.2361 7.03968C74.3456 7.32696 74.4294 7.64342 74.4843 7.98754C74.5397 8.33204 74.5673 8.70194 74.5673 9.09647V9.79722H68.2988C68.311 10.2691 68.4042 10.6769 68.5789 11.0191C68.6721 11.2002 68.7847 11.3606 68.9151 11.4997C69.0458 11.6387 69.1951 11.7574 69.3619 11.8536C69.5298 11.9491 69.7128 12.0211 69.9088 12.0681C70.1043 12.1159 70.317 12.1394 70.5444 12.1394C70.6986 12.1394 70.8438 12.1288 70.9775 12.1083C71.114 12.0871 71.2444 12.0549 71.3652 12.0139C71.4873 11.97 71.6021 11.9158 71.7063 11.8529C71.8109 11.7896 71.9091 11.7153 71.9985 11.6319C72.0868 11.5493 72.1657 11.4553 72.2324 11.3526C72.2995 11.2499 72.3563 11.1358 72.4018 11.0123L72.4151 10.9755L74.4908 11.2086L74.4779 11.2639C74.415 11.5285 74.3218 11.7778 74.2009 12.0109C74.08 12.2429 73.9295 12.4593 73.7514 12.6567C73.5748 12.853 73.3735 13.0281 73.1473 13.1805C72.9221 13.3328 72.6713 13.4636 72.3965 13.572C72.1221 13.6781 71.8272 13.7588 71.5131 13.8119C71.1985 13.8649 70.865 13.8918 70.5144 13.8918L70.5159 13.893ZM68.306 8.26724H72.434C72.4291 8.08684 72.4063 7.91477 72.3673 7.7537C72.3249 7.57785 72.2608 7.41185 72.1767 7.2576C72.0095 6.94494 71.7749 6.69935 71.4748 6.52047C71.3266 6.43178 71.1651 6.36394 70.9923 6.31922C70.8195 6.27488 70.633 6.25214 70.4333 6.25214C70.0088 6.25214 69.6367 6.35523 69.3176 6.56026C69.1569 6.66145 69.0136 6.7797 68.8889 6.91272C68.7646 7.04613 68.6566 7.19659 68.5668 7.36259C68.4796 7.52631 68.4125 7.69913 68.3678 7.87953C68.3367 8.00422 68.3155 8.13383 68.3049 8.26686L68.306 8.26724ZM52.2732 4.61641H54.4012V6.14602H54.4221C54.5157 5.89665 54.6388 5.67304 54.7901 5.4771C54.9481 5.27207 55.1387 5.09546 55.3601 4.94765C55.5806 4.79871 55.824 4.68653 56.0881 4.61149C56.3519 4.53683 56.6369 4.49931 56.9408 4.49931C57.5613 4.49931 58.085 4.65128 58.5114 4.95447C58.7259 5.10342 58.9097 5.28154 59.0613 5.48544C59.2053 5.68024 59.3217 5.90082 59.4081 6.14602H59.4327C59.5324 5.90423 59.665 5.68517 59.8295 5.49037C60.0004 5.28723 60.2074 5.10948 60.448 4.95864C60.6902 4.80553 60.9555 4.6907 61.242 4.61414C61.5289 4.53796 61.8382 4.49931 62.1675 4.49931C62.5867 4.49931 62.9695 4.56639 63.3136 4.69979C63.6581 4.83282 63.9643 5.03368 64.23 5.30011C64.7632 5.8326 65.03 6.60877 65.03 7.62598V13.7175H62.8027V7.95457C62.8027 7.68056 62.7663 7.44407 62.6947 7.24623C62.6242 7.05105 62.5162 6.89112 62.3748 6.76757C62.2312 6.64061 62.0709 6.54548 61.8954 6.48219C61.7203 6.4189 61.527 6.38744 61.3174 6.38744C61.0681 6.38744 60.8452 6.42648 60.6519 6.50379C60.459 6.58073 60.2926 6.69708 60.1536 6.85095C60.016 7.0033 59.9118 7.18067 59.8428 7.37964C59.7738 7.58013 59.7389 7.80487 59.7389 8.05349V13.7171H57.5582V7.86589C57.5582 7.41489 57.4225 7.05522 57.1516 6.78841C56.884 6.52122 56.5319 6.38706 56.0972 6.38706C55.9486 6.38706 55.8073 6.40639 55.6743 6.44353C55.5405 6.48105 55.412 6.53828 55.2915 6.6137C55.1706 6.68722 55.0614 6.7778 54.9648 6.88202C54.8689 6.98625 54.784 7.1079 54.7116 7.2451C54.6396 7.37964 54.585 7.52631 54.549 7.68435C54.513 7.84125 54.4948 8.0118 54.4948 8.19409V13.7171H52.2732V4.61641ZM45.0398 8.39344V13.7171H42.8181V4.61641H44.9461V6.14602H44.9685C45.0716 5.90233 45.205 5.68138 45.3661 5.4862C45.534 5.2823 45.7337 5.10418 45.9649 4.95334C46.1972 4.80212 46.4579 4.68804 46.7452 4.61262C47.0317 4.53721 47.3463 4.49931 47.6851 4.49931C47.9982 4.49931 48.2934 4.53342 48.5689 4.60088C48.8433 4.66834 49.098 4.76991 49.3326 4.90483C49.8067 5.17505 50.1728 5.5673 50.4309 6.0797C50.5613 6.33514 50.6591 6.619 50.7235 6.92864C50.7875 7.23752 50.8186 7.57406 50.8167 7.93638L50.8171 13.7171H48.5955V8.26458C48.5955 7.96821 48.5572 7.70481 48.4814 7.4759C48.406 7.24813 48.2915 7.05105 48.1403 6.88657C47.9913 6.72209 47.8128 6.59854 47.6063 6.51668C47.399 6.43444 47.161 6.39313 46.8938 6.39313C46.5315 6.39313 46.2089 6.47309 45.9281 6.63227C45.7898 6.70958 45.6655 6.80585 45.5571 6.91803C45.4483 7.03059 45.3532 7.16172 45.274 7.30953C45.1963 7.45771 45.1372 7.62295 45.0981 7.80184C45.0591 7.9811 45.0394 8.17855 45.0394 8.39344H45.0398ZM37.3557 13.893C36.9131 13.893 36.4981 13.8437 36.113 13.7459C35.7283 13.6485 35.3713 13.5011 35.045 13.3052C34.7187 13.1092 34.428 12.8743 34.1756 12.6006C33.9236 12.3274 33.7064 12.0143 33.5268 11.6622C33.3486 11.3117 33.2149 10.9297 33.1266 10.5192C33.0379 10.1088 32.9931 9.66913 32.9931 9.20221C32.9931 8.73491 33.0379 8.2949 33.1266 7.8837C33.2149 7.47173 33.3486 7.08895 33.5264 6.73611C33.706 6.38289 33.9228 6.06757 34.1756 5.79318C34.428 5.51879 34.7183 5.28306 35.045 5.08712C35.3717 4.89118 35.7283 4.74376 36.113 4.64636C36.4981 4.54858 36.9131 4.49931 37.3557 4.49931C37.7988 4.49931 38.2134 4.54858 38.5988 4.64636C38.9835 4.74376 39.3405 4.89118 39.6668 5.08712C39.9935 5.28306 40.283 5.51917 40.5347 5.79318C40.7863 6.06757 41.0024 6.38289 41.1797 6.73611C41.359 7.08857 41.4943 7.47211 41.5837 7.8837C41.6732 8.29528 41.7187 8.73529 41.7187 9.20221C41.7187 9.6695 41.6732 10.1084 41.5837 10.5192C41.4943 10.9289 41.359 11.3105 41.1794 11.6622C41.002 12.0132 40.7867 12.3266 40.5351 12.6006C40.2834 12.8743 39.9935 13.1092 39.6668 13.3052C39.3401 13.5011 38.9835 13.6485 38.5988 13.7459C38.2134 13.8437 37.7988 13.893 37.3557 13.893ZM37.3675 12.0932C37.8325 12.0932 38.2206 11.9658 38.5313 11.7126C38.6879 11.583 38.8243 11.4311 38.9407 11.2575C39.057 11.0835 39.1536 10.8868 39.2306 10.6681C39.3098 10.448 39.3697 10.2145 39.4091 9.97042C39.4485 9.72749 39.4682 9.46902 39.4682 9.19614C39.4682 8.6504 39.389 8.15771 39.2313 7.71922C39.1544 7.49826 39.0574 7.29929 38.941 7.12458C38.8247 6.95024 38.6879 6.79751 38.5317 6.66827C38.3767 6.53942 38.2016 6.44277 38.0083 6.37797C37.8158 6.31392 37.6021 6.2817 37.3682 6.2817C37.1291 6.2817 36.9096 6.3143 36.7129 6.37835C36.5159 6.44277 36.3385 6.53979 36.1816 6.66827C36.0255 6.79751 35.8879 6.95024 35.7708 7.12458C35.6537 7.29929 35.5551 7.49788 35.4763 7.71884C35.399 7.93903 35.3406 8.17249 35.3023 8.41732C35.2644 8.66139 35.2447 8.92138 35.2447 9.19614C35.2447 9.46902 35.2644 9.72749 35.3023 9.97042C35.3406 10.2145 35.3986 10.448 35.4763 10.6681C35.5544 10.8853 35.6533 11.0831 35.7708 11.2571C35.8883 11.4311 36.0255 11.5834 36.1812 11.7123C36.3385 11.8389 36.5162 11.9347 36.7126 11.998C36.91 12.0617 37.1291 12.0932 37.3682 12.0932H37.3675Z" fill="white"/>
</g>
<path fill-rule="evenodd" clip-rule="evenodd" d="M6.42329 3.56742C6.62643 3.49562 6.84976 3.50744 7.04418 3.60028C7.2386 3.69312 7.38819 3.85938 7.46004 4.0625C7.62803 4.53812 7.93938 4.94995 8.35118 5.24124C8.76299 5.53253 9.255 5.68895 9.75942 5.68895C10.2638 5.68895 10.7558 5.53253 11.1676 5.24124C11.5795 4.94995 11.8908 4.53812 12.0588 4.0625C12.0931 3.96027 12.1473 3.86589 12.2185 3.78485C12.2896 3.70381 12.3761 3.63774 12.473 3.59048C12.5699 3.54323 12.6753 3.51573 12.7829 3.5096C12.8906 3.50347 12.9984 3.51882 13.1 3.55476C13.2017 3.59071 13.2951 3.64652 13.375 3.71896C13.4549 3.7914 13.5195 3.879 13.5652 3.97668C13.6108 4.07435 13.6366 4.18013 13.641 4.28786C13.6453 4.3956 13.6282 4.50312 13.5906 4.60417C13.3105 5.39645 12.7917 6.08241 12.1056 6.56759C11.4194 7.05277 10.5998 7.31329 9.75942 7.31329C8.91908 7.31329 8.0994 7.05277 7.41327 6.56759C6.72714 6.08241 6.20831 5.39645 5.92821 4.60417C5.85641 4.40103 5.86823 4.1777 5.96107 3.98328C6.05391 3.78886 6.22017 3.63927 6.42329 3.56742ZM10.15 1.625H9.36779C7.60737 1.625 6.43521 1.62825 5.54688 1.73767C4.70404 1.84167 4.31512 2.02258 4.04212 2.249C3.76912 2.4765 3.51996 2.82425 3.26212 3.6335C2.99129 4.48608 2.77246 5.63767 2.44746 7.36883C1.99246 9.7955 1.68696 11.4432 1.63279 12.6847C1.58079 13.8818 1.78121 14.391 2.06287 14.7301C2.34454 15.0692 2.80712 15.3595 3.99337 15.5285C5.22296 15.704 6.89996 15.7083 9.36887 15.7083H10.1489C12.6189 15.7083 14.2948 15.704 15.5244 15.5285C16.7106 15.3595 17.1732 15.0692 17.4549 14.7301C17.7365 14.3899 17.937 13.8818 17.885 12.6847C17.8308 11.4432 17.5253 9.7955 17.0703 7.36883C16.7453 5.63767 16.5275 4.48717 16.2556 3.6335C15.9978 2.82425 15.7486 2.47542 15.4756 2.249C15.2026 2.02258 14.8148 1.84167 13.9709 1.73767C13.0825 1.62825 11.9104 1.625 10.15 1.625ZM3.00429 0.998833C1.80179 1.99767 1.48437 3.68875 0.850624 7.06983C-0.0409593 11.8246 -0.487293 14.2014 0.812708 15.7679C2.11271 17.3344 4.53071 17.3333 9.36887 17.3333H10.1489C14.987 17.3333 17.4061 17.3333 18.7061 15.7679C20.0061 14.2025 19.5598 11.8246 18.6682 7.06875C18.0345 3.68875 17.717 1.99767 16.5135 0.998833C15.311 -6.45717e-08 13.5895 0 10.15 0H9.36779C5.92821 0 4.20787 -6.45717e-08 3.00429 0.998833Z" fill="#007AFF"/>
<defs>
<clipPath id="clip0_1935_6033">
<rect width="71.085" height="12.2763" fill="white" transform="translate(27.1289 1.6167)"/>
</clipPath>
</defs>
</svg>
