<svg width="20" height="18" viewBox="0 0 20 18" fill="none" xmlns="http://www.w3.org/2000/svg">
<path fill-rule="evenodd" clip-rule="evenodd" d="M6.6645 3.56742C6.86764 3.49562 7.09097 3.50744 7.28539 3.60028C7.47981 3.69312 7.6294 3.85938 7.70125 4.0625C7.86924 4.53812 8.18059 4.94995 8.5924 5.24124C9.0042 5.53253 9.49621 5.68895 10.0006 5.68895C10.505 5.68895 10.997 5.53253 11.4089 5.24124C11.8207 4.94995 12.132 4.53812 12.3 4.0625C12.3343 3.96027 12.3886 3.86589 12.4597 3.78485C12.5308 3.70381 12.6173 3.63774 12.7142 3.59048C12.8111 3.54323 12.9165 3.51573 13.0241 3.5096C13.1318 3.50347 13.2396 3.51882 13.3412 3.55476C13.4429 3.59071 13.5364 3.64652 13.6162 3.71896C13.6961 3.7914 13.7607 3.879 13.8064 3.97668C13.8521 4.07435 13.8778 4.18013 13.8822 4.28786C13.8866 4.3956 13.8694 4.50312 13.8318 4.60417C13.5517 5.39645 13.0329 6.08241 12.3468 6.56759C11.6606 7.05277 10.841 7.31329 10.0006 7.31329C9.16029 7.31329 8.34062 7.05277 7.65448 6.56759C6.96836 6.08241 6.44952 5.39645 6.16942 4.60417C6.09762 4.40103 6.10944 4.1777 6.20228 3.98328C6.29513 3.78886 6.46139 3.63927 6.6645 3.56742ZM10.3912 1.625H9.609C7.84858 1.625 6.67642 1.62825 5.78809 1.73767C4.94525 1.84167 4.55633 2.02258 4.28334 2.249C4.01033 2.4765 3.76117 2.82425 3.50333 3.6335C3.2325 4.48608 3.01367 5.63767 2.68867 7.36883C2.23367 9.7955 1.92817 11.4432 1.874 12.6847C1.822 13.8818 2.02242 14.391 2.30409 14.7301C2.58575 15.0692 3.04833 15.3595 4.23459 15.5285C5.46417 15.704 7.14117 15.7083 9.61009 15.7083H10.3901C12.8601 15.7083 14.536 15.704 15.7656 15.5285C16.9518 15.3595 17.4144 15.0692 17.6961 14.7301C17.9778 14.3899 18.1782 13.8818 18.1262 12.6847C18.072 11.4432 17.7665 9.7955 17.3115 7.36883C16.9865 5.63767 16.7688 4.48717 16.4968 3.6335C16.239 2.82425 15.9898 2.47542 15.7168 2.249C15.4438 2.02258 15.056 1.84167 14.2121 1.73767C13.3238 1.62825 12.1516 1.625 10.3912 1.625ZM3.2455 0.998833C2.043 1.99767 1.72558 3.68875 1.09184 7.06983C0.200252 11.8246 -0.246082 14.2014 1.05392 15.7679C2.35392 17.3344 4.77192 17.3333 9.61009 17.3333H10.3901C15.2283 17.3333 17.6473 17.3333 18.9473 15.7679C20.2473 14.2025 19.801 11.8246 18.9094 7.06875C18.2757 3.68875 17.9583 1.99767 16.7547 0.998833C15.5522 -6.45717e-08 13.8308 0 10.3912 0H9.609C6.16942 0 4.44908 -6.45717e-08 3.2455 0.998833Z" fill="#007AFF"/>
</svg>
